<?xml version="1.0" standalone="no"?>
<!DOCTYPE svg PUBLIC "-//W3C//DTD SVG 20010904//EN"
 "http://www.w3.org/TR/2001/REC-SVG-20010904/DTD/svg10.dtd">
<svg version="1.0" xmlns="http://www.w3.org/2000/svg"
 width="2048.000000pt" height="2048.000000pt" viewBox="0 0 2048.000000 2048.000000"
 preserveAspectRatio="xMidYMid meet">
<metadata>
Created by potrace 1.11, written by Peter Selinger 2001-2013
</metadata>
<g transform="translate(0.000000,2048.000000) scale(0.100000,-0.100000)"
fill="#000000" stroke="none">
<path d="M4536 19428 c-53 -365 -49 -1039 9 -1318 42 -202 121 -483 145 -515
4 -5 11 -21 15 -35 8 -29 90 -207 105 -230 5 -8 22 -37 36 -65 15 -27 34 -60
43 -75 10 -14 35 -52 56 -85 147 -229 407 -506 595 -635 19 -13 37 -27 40 -30
16 -18 170 -108 268 -156 208 -101 357 -149 627 -202 72 -14 557 -16 4660 -19
2519 -2 4608 -1 4642 2 l62 6 6 65 c4 35 11 67 16 70 5 3 9 15 9 27 0 48 94
396 119 445 5 9 17 40 26 67 10 28 26 68 36 91 10 22 27 63 38 90 33 82 167
341 226 434 280 448 566 735 998 1004 129 80 297 158 472 221 50 17 97 34 105
38 27 10 124 35 185 47 61 11 115 29 115 37 0 12 -188 199 -260 260 -64 54
-195 145 -283 198 -208 123 -449 215 -687 261 -69 13 -144 28 -168 34 -28 7
-2102 10 -6146 10 l-6104 0 -6 -42z"/>
<path d="M18760 18185 c-25 -7 -92 -27 -150 -43 -97 -28 -278 -90 -325 -111
-241 -107 -472 -245 -639 -380 -38 -31 -80 -65 -95 -75 -50 -37 -223 -211
-304 -306 -110 -127 -130 -154 -231 -305 -47 -72 -94 -141 -103 -154 -9 -14
-55 -101 -103 -195 -159 -317 -251 -577 -349 -991 -20 -85 -31 -145 -101 -540
-15 -88 -31 -167 -35 -176 -3 -8 -19 -89 -35 -180 -62 -347 -87 -485 -94 -507
-4 -12 -21 -98 -37 -190 -17 -92 -43 -237 -59 -322 -47 -244 -131 -697 -195
-1040 -20 -107 -49 -267 -65 -355 -15 -88 -31 -167 -34 -175 -4 -9 -20 -90
-36 -180 -16 -91 -42 -237 -59 -325 -16 -88 -46 -248 -66 -355 -20 -107 -49
-265 -65 -350 -16 -85 -45 -243 -65 -350 -20 -107 -49 -265 -65 -350 -72 -386
-103 -556 -130 -705 -15 -88 -31 -167 -34 -175 -3 -8 -19 -91 -36 -185 -16
-93 -43 -240 -59 -325 -45 -238 -99 -528 -131 -705 -15 -88 -31 -167 -34 -175
-3 -8 -20 -91 -36 -185 -73 -406 -89 -491 -95 -506 -3 -8 -19 -89 -35 -180
-54 -303 -87 -484 -98 -524 -6 -22 -20 -101 -32 -175 -12 -74 -25 -144 -30
-155 -5 -11 -16 -67 -25 -125 -9 -58 -23 -134 -32 -170 -8 -36 -28 -137 -44
-225 -16 -88 -38 -207 -49 -265 -11 -58 -20 -111 -20 -118 0 -7 14 -18 32 -24
36 -13 238 -115 318 -161 347 -201 645 -458 863 -746 73 -97 147 -211 173
-266 7 -16 18 -37 24 -45 55 -82 159 -378 205 -585 20 -88 46 -323 50 -455 2
-63 8 -116 13 -118 17 -5 292 295 447 488 229 285 489 730 600 1025 15 39 30
75 35 80 4 6 18 44 30 85 12 41 26 80 30 85 10 12 63 193 100 340 15 61 31
117 34 125 7 16 46 214 96 480 55 298 102 546 130 700 16 85 45 241 65 345 19
105 48 262 65 350 16 88 46 246 65 350 20 105 49 260 65 345 16 85 45 243 65
350 20 107 49 263 65 345 30 160 83 440 130 695 16 85 43 236 60 335 17 99 35
189 40 200 5 11 20 88 35 170 14 83 41 236 61 340 19 105 48 260 64 345 16 85
45 241 65 345 20 105 49 260 65 345 16 85 45 243 65 350 20 107 49 263 65 345
27 142 64 344 130 695 16 85 45 243 65 350 20 107 50 265 65 350 16 85 45 241
65 345 20 105 49 260 65 345 15 85 45 243 65 350 20 107 49 265 65 350 16 85
45 241 65 345 116 613 112 587 132 742 19 149 30 775 14 833 -5 19 -16 96 -25
170 -8 74 -20 149 -26 165 -6 17 -21 77 -34 135 -37 163 -90 319 -164 485 -36
80 -113 229 -122 235 -4 3 -15 21 -25 40 -43 83 -256 369 -275 369 -3 0 -25
-6 -50 -14z"/>
<path d="M2677 12040 c-25 -16 -44 -58 -52 -115 -3 -28 -10 -59 -15 -70 -5
-11 -23 -99 -40 -195 -17 -96 -43 -245 -59 -330 -16 -85 -46 -245 -66 -355
-20 -110 -50 -270 -65 -355 -16 -85 -45 -240 -64 -345 -19 -104 -49 -262 -65
-350 -16 -88 -46 -248 -66 -355 -20 -107 -49 -265 -65 -350 -53 -288 -101
-544 -130 -700 -15 -85 -45 -243 -65 -350 -20 -107 -49 -265 -65 -350 -16 -85
-45 -243 -65 -350 -20 -107 -49 -267 -66 -355 -16 -88 -45 -245 -64 -350 -20
-104 -49 -262 -65 -350 -16 -88 -45 -243 -63 -345 -19 -102 -36 -192 -40 -200
-3 -8 -17 -82 -31 -165 -14 -82 -41 -235 -61 -340 -19 -104 -49 -262 -65 -350
-16 -88 -45 -245 -65 -350 -19 -104 -46 -255 -60 -335 -14 -80 -30 -161 -35
-180 -6 -19 -24 -114 -40 -210 -16 -96 -42 -247 -59 -335 -17 -88 -45 -241
-64 -340 -18 -99 -36 -187 -40 -195 -3 -8 -18 -82 -32 -165 -14 -82 -42 -238
-61 -345 -20 -107 -48 -278 -64 -380 -15 -104 -32 -186 -39 -188 -7 -2 -11
-30 -11 -73 0 -69 0 -69 28 -69 15 0 52 7 82 15 30 9 89 24 130 35 138 35 394
125 545 193 107 47 375 187 465 242 52 31 109 65 126 75 17 10 62 40 100 67
38 27 83 57 99 67 156 99 512 394 666 552 341 352 610 700 886 1149 140 227
346 651 419 860 13 39 28 77 34 86 10 19 46 195 95 469 80 443 94 516 99 530
3 8 19 92 36 185 52 303 88 500 94 515 3 8 20 94 37 190 32 182 64 358 124
670 20 102 49 260 64 352 16 92 31 171 34 175 3 5 17 81 31 169 15 87 30 173
36 189 14 45 37 236 54 445 20 256 3 642 -39 865 -23 122 -62 280 -96 381 -32
99 -101 280 -119 312 -5 9 -32 63 -60 120 -28 57 -59 116 -69 130 -10 15 -49
74 -86 131 -121 183 -288 372 -450 508 -70 59 -255 185 -335 229 -30 17 -64
35 -75 42 -34 20 -195 92 -206 92 -5 0 -28 9 -50 20 -80 38 -341 105 -469 119
-151 17 -304 22 -323 11z"/>
<path d="M5026 4801 c-3 -5 -14 -7 -24 -5 -12 4 -22 -6 -34 -36 -10 -22 -18
-46 -18 -53 0 -7 -4 -17 -8 -22 -11 -12 -45 -103 -40 -108 2 -1 -4 -14 -13
-27 -8 -14 -26 -52 -39 -85 -13 -33 -32 -75 -42 -93 -10 -18 -18 -39 -18 -47
0 -8 -4 -15 -10 -15 -5 0 -10 -5 -10 -11 0 -15 -32 -83 -43 -90 -5 -3 -9 -10
-8 -15 0 -10 -51 -117 -60 -124 -3 -3 -21 -35 -39 -72 -19 -38 -37 -68 -41
-68 -4 0 -10 -11 -13 -25 -4 -14 -11 -25 -16 -25 -6 0 -10 -9 -10 -20 0 -11
-7 -23 -15 -26 -8 -4 -15 -13 -15 -20 0 -8 -4 -20 -10 -27 -24 -29 -150 -228
-150 -237 0 -6 -3 -10 -7 -10 -5 0 -19 -17 -33 -38 -14 -20 -29 -40 -35 -44
-5 -4 -6 -8 -1 -8 4 0 -6 -17 -23 -37 -49 -58 -51 -62 -51 -72 0 -5 -3 -11 -7
-13 -5 -1 -34 -37 -65 -78 -32 -41 -68 -87 -80 -101 -13 -15 -34 -41 -48 -59
-14 -18 -29 -38 -35 -44 -5 -6 -25 -29 -44 -51 -134 -158 -401 -434 -496 -512
-27 -23 -60 -50 -72 -60 -12 -10 -38 -31 -59 -48 -20 -16 -42 -34 -48 -40 -36
-32 -176 -135 -184 -135 -5 0 -12 -7 -16 -15 -3 -8 -12 -15 -20 -15 -8 0 -16
-4 -18 -8 -1 -5 -32 -28 -68 -52 -36 -24 -67 -47 -68 -52 -2 -4 -8 -6 -13 -2
-5 3 -9 0 -9 -7 0 -7 -3 -10 -6 -6 -3 3 -16 -4 -29 -15 -13 -11 -33 -26 -44
-32 -85 -48 -137 -80 -143 -90 -4 -6 -8 -7 -8 -2 0 4 -15 -3 -34 -18 -19 -14
-41 -26 -49 -26 -8 0 -20 -7 -27 -15 -7 -8 -16 -13 -20 -10 -5 3 -10 1 -12 -3
-4 -12 -313 -162 -332 -162 -9 0 -16 -4 -16 -9 0 -5 -10 -11 -22 -14 -13 -3
-77 -26 -143 -52 -66 -26 -127 -48 -135 -50 -8 -2 -41 -13 -72 -24 -32 -11
-58 -18 -58 -15 0 2 -14 -3 -30 -11 -17 -9 -35 -13 -40 -10 -6 3 -10 1 -10 -4
0 -6 -3 -10 -7 -9 -5 1 -26 -3 -48 -7 -56 -13 -54 -12 -60 -15 -3 -1 -9 -3
-14 -4 -5 0 -12 -4 -16 -8 -4 -4 37 -4 92 -2 54 3 104 5 111 4 6 0 20 0 30 0
9 0 31 0 47 -1 17 -1 42 -1 58 0 47 2 51 1 77 -2 14 -2 31 1 37 6 7 5 13 6 13
1 0 -5 58 -9 129 -10 82 0 128 3 124 9 -4 6 -1 7 8 1 20 -12 62 -13 76 -2 6 5
14 5 16 1 3 -5 308 -9 679 -11 552 -1 2497 -11 2533 -12 6 0 54 1 108 3 55 1
101 -1 104 -5 2 -5 12 -4 21 0 9 4 67 6 127 5 131 -4 108 -4 228 0 55 1 101
-1 104 -6 2 -4 10 -4 16 0 6 4 70 6 142 5 71 -2 743 -4 1492 -5 750 -1 1363
-6 1363 -10 0 -5 5 -5 12 -1 10 6 137 9 163 4 6 -1 12 -2 15 -1 8 3 454 3 465
1 6 -1 15 -2 20 -1 6 2 71 2 145 1 74 -1 320 -2 545 -2 295 0 414 -3 424 -11
12 -9 13 -9 7 0 -5 9 0 12 18 11 15 -1 26 -7 26 -13 0 -6 3 -6 8 1 9 13 145
13 154 -1 5 -7 8 -7 8 0 0 7 52 11 145 11 80 -1 145 -4 145 -9 0 -4 6 -5 13 0
18 11 36 12 43 2 4 -6 10 -6 18 0 13 11 64 9 85 -3 10 -6 12 -5 7 3 -9 14 30
11 53 -3 9 -6 12 -5 8 1 -4 6 9 10 33 9 22 0 40 -5 40 -10 0 -5 7 -3 15 4 12
10 15 10 15 -1 0 -9 3 -10 8 -4 4 6 16 10 27 10 11 0 23 -4 27 -10 5 -6 8 -6
8 1 0 12 29 12 48 0 6 -4 12 -3 12 1 0 5 9 9 20 9 11 0 20 -4 20 -9 0 -5 6 -4
14 2 10 8 16 9 21 1 4 -6 12 -7 24 0 12 6 22 5 29 -2 8 -8 12 -8 12 -2 0 6 7
11 15 11 8 0 15 -4 15 -8 0 -5 11 -4 24 1 15 5 27 5 35 -3 8 -8 11 -8 11 1 0
8 7 9 24 2 13 -5 27 -6 31 -2 10 10 39 8 48 -3 5 -7 10 -7 15 0 4 6 16 10 27
10 11 0 23 -4 27 -10 5 -6 8 -6 8 1 0 12 29 12 48 0 6 -4 12 -3 12 1 0 5 9 9
20 9 11 0 20 -5 20 -11 0 -6 3 -7 8 0 8 12 42 16 42 5 0 -11 34 -7 42 5 5 6 8
5 8 -2 0 -13 26 -13 47 0 6 4 15 3 18 -3 5 -8 11 -8 20 0 7 6 16 7 19 2 4 -7
39 -8 56 -2 15 6 36 4 43 -5 5 -7 10 -7 15 0 4 6 16 10 27 10 11 0 23 -4 27
-10 5 -6 8 -6 8 1 0 12 29 12 48 0 6 -4 12 -3 12 2 0 13 33 10 42 -3 5 -6 8
-5 8 3 0 9 5 10 18 3 11 -6 24 -6 35 0 12 7 17 6 17 -3 0 -10 2 -10 9 1 5 8
11 9 15 3 6 -9 53 -8 63 2 4 3 12 1 20 -5 7 -6 13 -7 13 -2 0 13 43 11 52 -2
5 -6 8 -6 8 2 0 8 17 11 51 9 29 -1 74 1 100 4 31 4 50 2 53 -4 3 -6 5 -5 5 2
1 7 4 11 9 8 10 -6 250 21 264 30 4 3 8 -1 8 -8 0 -9 2 -10 8 -2 6 11 21 15
117 31 69 11 271 65 284 76 12 9 13 9 8 0 -5 -8 2 -7 20 2 15 8 35 15 44 15 9
0 19 3 23 7 4 5 11 8 14 9 4 0 14 3 22 7 67 25 116 41 123 39 4 -1 7 2 7 6 0
5 19 15 43 22 23 8 51 21 61 29 16 13 18 14 11 1 -7 -12 -6 -13 6 -3 8 7 67
39 130 71 115 59 260 140 269 151 8 10 64 42 83 48 9 3 17 9 17 12 0 4 24 23
53 41 28 19 54 36 57 39 3 4 28 22 55 40 28 19 52 38 55 41 3 3 39 33 80 65
87 69 81 64 154 134 82 79 99 112 101 188 0 34 -2 63 -5 63 -3 0 -5 36 -5 81
0 44 -3 83 -8 86 -4 2 -5 8 -2 13 3 5 1 39 -5 77 -5 37 -11 84 -14 103 -2 19
-5 36 -6 38 -2 1 -4 11 -5 22 -1 11 -3 21 -5 23 -1 1 -3 11 -5 22 -4 20 -17
86 -20 95 -13 50 -39 128 -46 136 -5 7 -9 16 -8 20 1 5 -3 22 -9 37 -7 16 -12
35 -12 43 0 8 -4 14 -9 14 -5 0 -12 12 -17 28 -4 15 -8 29 -9 32 -5 16 -90
181 -111 215 -13 22 -27 47 -31 55 -4 8 -12 20 -17 27 -30 34 -36 43 -36 51 0
5 -11 22 -25 38 -14 16 -25 35 -25 42 0 6 -4 12 -8 12 -5 0 -20 15 -33 33 -52
73 -99 125 -215 241 -125 126 -194 189 -194 178 0 -4 -7 4 -16 16 -8 12 -19
22 -25 22 -5 0 -18 8 -28 18 -28 25 -40 34 -96 72 -27 19 -51 37 -53 42 -2 4
-8 8 -13 8 -5 0 -56 32 -113 70 -58 39 -110 70 -115 70 -6 0 -11 5 -11 11 0 5
-4 8 -9 4 -5 -3 -12 -1 -15 4 -7 10 -145 81 -168 85 -7 2 -21 6 -30 10 -9 4
-22 9 -30 10 -7 2 -20 6 -28 9 -8 3 -31 9 -50 13 -63 12 -7444 12 -7452 0 -5
-7 -8 -7 -8 2 0 9 -5 10 -19 3 -10 -6 -21 -7 -25 -3 -12 11 -76 9 -76 -2 0 -8
-3 -8 -8 -1 -4 6 -34 11 -67 11 -33 0 -63 -5 -67 -11 -5 -7 -8 -7 -8 1 0 11
-58 13 -76 1 -6 -3 -14 -3 -18 1 -12 11 -76 9 -76 -2 0 -8 -3 -8 -8 -1 -4 6
-34 11 -67 11 -33 0 -63 -5 -67 -11 -5 -7 -8 -7 -8 0 0 12 -128 14 -146 3 -6
-4 -14 -4 -18 0 -12 11 -70 9 -78 -3 -5 -6 -8 -6 -8 2 0 9 -7 10 -22 4 -13 -5
-33 -5 -45 0 -15 5 -23 5 -23 -2 0 -6 -6 -7 -17 -1 -9 6 -29 6 -45 2 -16 -5
-30 -5 -33 1 -4 5 -14 5 -25 -1 -13 -7 -21 -7 -25 0 -4 7 -13 7 -26 0 -12 -7
-19 -7 -19 -1 0 7 -9 7 -25 1 -16 -6 -25 -6 -25 0 0 6 -10 6 -26 0 -14 -6 -23
-6 -20 -2 5 8 -73 6 -81 -2 -3 -3 -14 -1 -24 4 -12 7 -20 7 -24 0 -4 -7 -12
-7 -25 0 -11 6 -21 6 -24 1z"/>
<path d="M1438 1433 c7 -3 16 -2 19 1 4 3 -2 6 -13 5 -11 0 -14 -3 -6 -6z"/>
</g>
</svg>
